<?xml version="1.0" encoding="UTF-8" standalone="no"?>
<!-- Created with Inkscape (http://www.inkscape.org/) -->

<svg
   version="1.1"
   id="svg182"
   width="1536"
   height="1024"
   viewBox="0 0 1536 1024"
   xmlns="http://www.w3.org/2000/svg"
   xmlns:svg="http://www.w3.org/2000/svg">
  <defs
     id="defs186">
    <marker
       style="overflow:visible"
       id="Arrow1"
       refX="0"
       refY="0"
       orient="auto-start-reverse"
       markerWidth="4.0606604"
       markerHeight="6.7071066"
       viewBox="0 0 4.0606602 6.7071068"
       preserveAspectRatio="xMidYMid">
      <path
         style="fill:none;stroke:context-stroke;stroke-width:1;stroke-linecap:butt"
         d="M 3,-3 0,0 3,3"
         id="path5057"
         transform="rotate(180,0.125,0)" />
    </marker>
  </defs>
  <g
     id="layer3"
     style="display:inline">
    <rect
       style="fill:#fbf5e8;fill-opacity:1;stroke:none;stroke-width:10.9606;stroke-linecap:round;stroke-linejoin:round;stroke-dasharray:none;stroke-opacity:1;paint-order:stroke fill markers"
       id="rect10547"
       width="1532.6005"
       height="1018.7392"
       x="3.593435"
       y="3.5934322"
       rx="0"
       ry="0" />
  </g>
  <g
     id="layer6">
    <path
       style="fill:none;fill-opacity:1;stroke:#a5a5a5;stroke-width:5.15683;stroke-linecap:round;stroke-linejoin:round;stroke-dasharray:30.940979, 30.940979;stroke-opacity:0.5;paint-order:stroke fill markers;stroke-dashoffset:0"
       id="path12883"
       d="M 1072.7557,512.00018 A 304.75565,301.21069 0 0 1 769.11125,813.20887 304.75565,301.21069 0 0 1 463.25252,514.1967 304.75565,301.21069 0 0 1 764.66655,210.80751 304.75565,301.21069 0 0 1 1072.7233,507.60727" />
    <path
       style="fill:none;fill-opacity:1;stroke:#a5a5a5;stroke-width:6.62463;stroke-linecap:round;stroke-linejoin:round;stroke-dasharray:none;stroke-opacity:0.5;paint-order:stroke fill markers"
       id="path15488"
       d="M 1169.0446,512 A 401.04449,377.7356 0 0 1 769.4624,889.73308 401.04449,377.7356 0 0 1 366.96629,514.75456 401.04449,377.7356 0 0 1 763.61337,134.287 401.04449,377.7356 0 0 1 1169.002,506.49103" />
    <path
       style="fill:none;fill-opacity:1;stroke:#a5a5a5;stroke-width:8.17886;stroke-linecap:round;stroke-linejoin:round;stroke-dasharray:32.71543884, 16.35771942;stroke-opacity:0.5;paint-order:stroke fill markers;stroke-dashoffset:152.12678528"
       id="path15490"
       d="M 1261.6968,497.86557 A 496.32657,465.237 0 0 1 767.17993,963.09948 496.32657,465.237 0 0 1 269.05687,501.25821 496.32657,465.237 0 0 1 759.94126,32.656403 496.32657,465.237 0 0 1 1261.644,491.08047" />
  </g>
  <g
     id="g188"
     style="display:inline">
    <g
       id="g11320"
       style="display:inline;fill:#ffffff;fill-opacity:1;stroke:#000000;stroke-width:10.961;stroke-linecap:round;stroke-linejoin:round;stroke-dasharray:none;stroke-opacity:1;paint-order:stroke fill markers">
      <path
         id="path11308"
         style="fill:#e9e9ff;fill-rule:evenodd;stroke:none;stroke-width:9.27736;stroke-linejoin:round"
         d="m 825.81143,834.47606 52.76383,21.80487 v 56.69216 l -52.76383,-27.84186 z"
         points="878.57526,856.28093 878.57526,912.97309 825.81143,885.13123 825.81143,834.47606 " />
      <path
         id="path11310"
         style="fill:#353564;fill-rule:evenodd;stroke:none;stroke-width:9.27736;stroke-linejoin:round"
         d="m 768.2778,847.02838 v 54.13046 l 57.53363,-16.02761 v -50.65517 z"
         points="768.2778,901.15884 825.81143,885.13123 825.81143,834.47606 768.2778,847.02838 " />
      <path
         id="path11312"
         style="fill:#afafde;fill-rule:evenodd;stroke:none;stroke-width:9.27736;stroke-linejoin:round"
         d="m 768.2778,901.15884 49.46103,32.0553 60.83643,-20.24105 -52.76383,-27.84186 z"
         points="817.73883,933.21414 878.57526,912.97309 825.81143,885.13123 768.2778,901.15884 " />
      <path
         id="path11314"
         style="fill:#f2f2f2;fill-opacity:1;fill-rule:evenodd;stroke:#000000;stroke-width:9.27736;stroke-linejoin:round;stroke-opacity:1"
         d="m 768.2778,847.02838 49.46103,25.1047 60.83643,-15.85215 -52.76383,-21.80487 z"
         points="817.73883,872.13308 878.57526,856.28093 825.81143,834.47606 768.2778,847.02838 " />
      <path
         id="path11316"
         style="fill:#aeaeae;fill-opacity:1;fill-rule:evenodd;stroke:#000000;stroke-width:9.27736;stroke-linejoin:round;stroke-opacity:1"
         d="m 817.73883,872.13308 v 61.08106 l 60.83643,-20.24105 v -56.69216 z"
         points="817.73883,933.21414 878.57526,912.97309 878.57526,856.28093 817.73883,872.13308 " />
      <path
         id="path11318"
         style="fill:#e7e7e7;fill-opacity:1;fill-rule:evenodd;stroke:#000000;stroke-width:9.27736;stroke-linejoin:round;stroke-opacity:1"
         d="m 768.2778,847.02838 49.46103,25.1047 v 61.08106 l -49.46103,-32.0553 z"
         points="817.73883,872.13308 817.73883,933.21414 768.2778,901.15884 768.2778,847.02838 " />
    </g>
    <g
       id="g11338"
       style="fill:#ffffff;fill-opacity:1;stroke:#000000;stroke-width:10.961;stroke-linecap:round;stroke-linejoin:round;stroke-dasharray:none;stroke-opacity:1;paint-order:stroke fill markers">
      <path
         id="path11326"
         style="fill:#e9e9ff;fill-rule:evenodd;stroke:none;stroke-width:9.27736;stroke-linejoin:round"
         d="m 716.13648,821.83913 51.10212,21.83133 v 56.76094 l -51.10212,-27.87564 z"
         points="767.2386,843.67046 767.2386,900.4314 716.13648,872.55576 716.13648,821.83913 " />
      <path
         id="path11328"
         style="fill:#353564;fill-rule:evenodd;stroke:none;stroke-width:9.27736;stroke-linejoin:round"
         d="m 660.41477,834.40668 v 54.19614 l 55.72171,-16.04706 v -50.71663 z"
         points="660.41477,888.60282 716.13648,872.55576 716.13648,821.83913 660.41477,834.40668 " />
      <path
         id="path11330"
         style="fill:#afafde;fill-rule:evenodd;stroke:none;stroke-width:9.27736;stroke-linejoin:round"
         d="m 660.41477,888.60282 47.90334,32.09419 58.92049,-20.26561 -51.10212,-27.87564 z"
         points="708.31811,920.69701 767.2386,900.4314 716.13648,872.55576 660.41477,888.60282 " />
      <path
         id="path11332"
         style="fill:#f2f2f2;fill-opacity:1;fill-rule:evenodd;stroke:#000000;stroke-width:9.27736;stroke-linejoin:round;stroke-opacity:1"
         d="m 660.41477,834.40668 47.90334,25.13516 58.92049,-15.87138 -51.10212,-21.83133 z"
         points="708.31811,859.54184 767.2386,843.67046 716.13648,821.83913 660.41477,834.40668 " />
      <path
         id="path11334"
         style="fill:#aeaeae;fill-opacity:1;fill-rule:evenodd;stroke:#000000;stroke-width:9.27736;stroke-linejoin:round;stroke-opacity:1"
         d="m 708.31811,859.54184 v 61.15517 L 767.2386,900.4314 v -56.76094 z"
         points="708.31811,920.69701 767.2386,900.4314 767.2386,843.67046 708.31811,859.54184 " />
      <path
         id="path11336"
         style="fill:#e7e7e7;fill-opacity:1;fill-rule:evenodd;stroke:#000000;stroke-width:9.27736;stroke-linejoin:round;stroke-opacity:1"
         d="m 660.41477,834.40668 47.90334,25.13516 v 61.15517 l -47.90334,-32.09419 z"
         points="708.31811,859.54184 708.31811,920.69701 660.41477,888.60282 660.41477,834.40668 " />
    </g>
    <g
       id="g11228"
       style="fill:#ffffff;fill-opacity:1;stroke:#000000;stroke-width:10.961;stroke-linecap:round;stroke-linejoin:round;stroke-dasharray:none;stroke-opacity:1;paint-order:stroke fill markers">
      <path
         id="path11240"
         style="fill:#e9e9ff;fill-rule:evenodd;stroke:none;stroke-width:9.27736;stroke-linejoin:round"
         d="m 772.85244,755.29621 53.74223,21.46297 v 55.80324 l -53.74223,-27.40531 z"
         points="826.59467,776.75918 826.59467,832.56242 772.85244,805.15711 772.85244,755.29621 " />
      <path
         id="path11230"
         style="fill:#353564;fill-rule:evenodd;stroke:none;stroke-width:9.27736;stroke-linejoin:round"
         d="m 714.25196,767.65171 v 53.2817 l 58.60048,-15.7763 v -49.8609 z"
         points="714.25196,820.93341 772.85244,805.15711 772.85244,755.29621 714.25196,767.65171 " />
      <path
         id="path11238"
         style="fill:#afafde;fill-rule:evenodd;stroke:none;stroke-width:9.27736;stroke-linejoin:round"
         d="m 714.25196,820.93341 50.37818,31.55268 61.96453,-19.92367 -53.74223,-27.40531 z"
         points="764.63014,852.48609 826.59467,832.56242 772.85244,805.15711 714.25196,820.93341 " />
      <path
         id="path11232"
         style="fill:#f2f2f2;fill-opacity:1;fill-rule:evenodd;stroke:#000000;stroke-width:9.27736;stroke-linejoin:round;stroke-opacity:1"
         d="m 714.25196,767.65171 50.37818,24.71106 61.96453,-15.60359 -53.74223,-21.46297 z"
         points="764.63014,792.36277 826.59467,776.75918 772.85244,755.29621 714.25196,767.65171 " />
      <path
         id="path11236"
         style="fill:#aeaeae;fill-opacity:1;fill-rule:evenodd;stroke:#000000;stroke-width:9.27736;stroke-linejoin:round;stroke-opacity:1"
         d="m 764.63014,792.36277 v 60.12332 l 61.96453,-19.92367 v -55.80324 z"
         points="764.63014,852.48609 826.59467,832.56242 826.59467,776.75918 764.63014,792.36277 " />
      <path
         id="path11234"
         style="fill:#e7e7e7;fill-opacity:1;fill-rule:evenodd;stroke:#000000;stroke-width:9.27736;stroke-linejoin:round;stroke-opacity:1"
         d="m 714.25196,767.65171 50.37818,24.71106 v 60.12332 l -50.37818,-31.55268 z"
         points="764.63014,792.36277 764.63014,852.48609 714.25196,820.93341 714.25196,767.65171 " />
    </g>
    <path
       style="fill:none;fill-rule:evenodd;stroke:#fc8315;stroke-width:10;stroke-linecap:butt;stroke-linejoin:miter;stroke-dasharray:none;stroke-opacity:1;marker-start:url(#Arrow1)"
       d="m 770.85487,692.02037 1.0006,56.84078"
       id="path12080" />
    <path
       style="fill:none;fill-rule:evenodd;stroke:#fc8315;stroke-width:11.303;stroke-linecap:butt;stroke-linejoin:miter;stroke-dasharray:none;stroke-opacity:1;marker-start:url(#Arrow1)"
       d="m 576.31064,631.50258 c -93.6879,71.60846 -203.09848,73.01671 -234.74108,-59.602"
       id="path12424" />
    <path
       style="fill:none;fill-rule:evenodd;stroke:#fc8315;stroke-width:11.303;stroke-linecap:butt;stroke-linejoin:miter;stroke-dasharray:none;stroke-opacity:1;marker-start:url(#Arrow1)"
       d="m 964.69781,604.77188 c 76.13919,90.04452 182.69889,114.89804 242.06259,-7.84122"
       id="path12440" />
  </g>
  <g
     id="layer1"
     style="display:inline">
    <path
       id="rect4159"
       style="fill:#fc8315;fill-opacity:1;stroke:#ff9e00;stroke-width:30.2362;stroke-linecap:round;stroke-linejoin:round;stroke-opacity:1;paint-order:stroke fill markers"
       d="M 769.94816,662.45218 C 641.62015,663.49853 499.87989,328.7258 586.38666,320.71411 c 86.50677,-8.01168 179.01521,-69.41541 179.01521,-69.41541 0,0 107.76463,55.17939 187.10044,70.31377 79.33579,15.13437 -54.22616,339.79335 -182.55415,340.83971 z" />
    <text
       xml:space="preserve"
       style="font-size:192px;fill:#ffffff;fill-opacity:1;stroke:none;stroke-width:30.2362;stroke-linecap:round;stroke-linejoin:round;stroke-opacity:1;paint-order:stroke fill markers"
       x="614.29028"
       y="485.59558"
       id="text5153"><tspan
         id="tspan5151"
         x="614.29028"
         y="485.59558"
         style="font-style:normal;font-variant:normal;font-weight:bold;font-stretch:normal;font-family:Arial;-inkscape-font-specification:'Arial Bold'">API</tspan></text>
    <rect
       style="display:inline;fill:#ffffff;fill-opacity:1;stroke:#454545;stroke-width:30.2362;stroke-linecap:round;stroke-linejoin:round;stroke-opacity:1;paint-order:stroke fill markers"
       id="rect5368"
       width="282.98306"
       height="252.43884"
       x="202.13077"
       y="207.52094"
       ry="22.458979"
       rx="21.560616" />
    <path
       style="fill:none;fill-opacity:1;stroke:#454545;stroke-width:10.9606;stroke-linecap:round;stroke-linejoin:round;stroke-dasharray:none;stroke-opacity:1;paint-order:stroke fill markers"
       d="M 195.84226,251.54052 H 494.09744"
       id="path7318" />
    <path
       style="fill:#ffffff;fill-opacity:0.554415;stroke:#9e9e9e;stroke-width:10.9606;stroke-linecap:round;stroke-linejoin:round;stroke-dasharray:none;stroke-opacity:1;paint-order:stroke fill markers"
       d="m 244.35364,312.17975 h 29.64585"
       id="path7385" />
    <path
       style="fill:#ffffff;fill-opacity:0.554415;stroke:#9e9e9e;stroke-width:10.9606;stroke-linecap:round;stroke-linejoin:round;stroke-dasharray:none;stroke-opacity:1;paint-order:stroke fill markers"
       d="m 289.27159,312.17975 h 67.37693"
       id="path8775" />
    <path
       style="fill:#ffffff;fill-opacity:0.554415;stroke:#9e9e9e;stroke-width:10.961;stroke-linecap:round;stroke-linejoin:round;stroke-dasharray:none;stroke-opacity:1;paint-order:stroke fill markers"
       d="M 270.40606,346.31739 H 399.76975"
       id="path8777" />
    <path
       style="fill:#ffffff;fill-opacity:0.554415;stroke:#9e9e9e;stroke-width:10.9606;stroke-linecap:round;stroke-linejoin:round;stroke-dasharray:none;stroke-opacity:1;paint-order:stroke fill markers"
       d="m 416.83857,346.31739 h 25.15405"
       id="path8779" />
    <path
       style="fill:#ffffff;fill-opacity:0.554415;stroke:#9e9e9e;stroke-width:10.9606;stroke-linecap:round;stroke-linejoin:round;stroke-dasharray:none;stroke-opacity:1;paint-order:stroke fill markers"
       d="m 272.20277,380.00585 h 49.40975"
       id="path8781" />
    <path
       style="fill:#ffffff;fill-opacity:0.554415;stroke:#9e9e9e;stroke-width:10.9606;stroke-linecap:round;stroke-linejoin:round;stroke-dasharray:none;stroke-opacity:1;paint-order:stroke fill markers"
       d="M 335.98626,380.00585 H 394.3796"
       id="path8783" />
    <path
       style="fill:#ffffff;fill-opacity:0.554415;stroke:#9e9e9e;stroke-width:10.9606;stroke-linecap:round;stroke-linejoin:round;stroke-dasharray:none;stroke-opacity:1;paint-order:stroke fill markers"
       d="m 242.55693,414.59267 h 32.34092"
       id="path8787" />
    <path
       style="fill:#ffffff;fill-opacity:0.554415;stroke:#9e9e9e;stroke-width:10.9606;stroke-linecap:round;stroke-linejoin:round;stroke-dasharray:none;stroke-opacity:1;paint-order:stroke fill markers"
       d="m 289.27159,414.59267 h 53.00318"
       id="path8789" />
    <circle
       style="display:inline;fill:#ff2500;fill-opacity:1;stroke:none;stroke-width:10.9606;stroke-linecap:round;stroke-linejoin:round;stroke-dasharray:none;stroke-opacity:1;paint-order:stroke fill markers"
       id="path8863"
       cx="240.31102"
       cy="228.1832"
       r="10.331128" />
    <circle
       style="display:inline;fill:#ffda00;fill-opacity:1;stroke:none;stroke-width:10.9606;stroke-linecap:round;stroke-linejoin:round;stroke-dasharray:none;stroke-opacity:1;paint-order:stroke fill markers"
       id="circle8867"
       cx="274.44867"
       cy="228.1832"
       r="10.331128" />
    <circle
       style="display:inline;fill:#13ff00;fill-opacity:1;stroke:none;stroke-width:10.9606;stroke-linecap:round;stroke-linejoin:round;stroke-dasharray:none;stroke-opacity:1;paint-order:stroke fill markers"
       id="circle8869"
       cx="308.5863"
       cy="228.1832"
       r="10.331128" />
  </g>
  <g
     id="layer4"
     style="display:inline">
    <path
       id="rect10556"
       style="fill:#ffffff;fill-opacity:1;stroke:#000000;stroke-width:30.2362;stroke-linecap:round;stroke-linejoin:round;paint-order:stroke fill markers"
       d="m 1123.4221,216.56836 h 181.1384 c 14.7806,0 26.6799,11.89924 26.6799,26.6799 v 224.36856 c 0,14.78067 -11.8993,26.6799 -26.6799,26.6799 h -181.1384 c -14.7807,0 -26.6799,-11.89923 -26.6799,-26.6799 V 243.24826 c 0,-14.78066 11.8992,-26.6799 26.6799,-26.6799 z" />
    <path
       style="display:inline;fill:#ffffff;fill-opacity:0.554415;stroke:#9e9e9e;stroke-width:10.961;stroke-linecap:round;stroke-linejoin:round;stroke-dasharray:none;stroke-opacity:1;paint-order:stroke fill markers"
       d="m 1127.4405,285.22898 h 129.3637"
       id="path11104" />
    <g
       id="g11129"
       transform="translate(0,0.59890667)">
      <path
         style="display:inline;fill:#ffffff;fill-opacity:0.554415;stroke:#9e9e9e;stroke-width:10.961;stroke-linecap:round;stroke-linejoin:round;stroke-dasharray:none;stroke-opacity:1;paint-order:stroke fill markers"
         d="m 1127.4405,329.24857 h 58.1394"
         id="path11107" />
      <path
         style="display:inline;fill:#ffffff;fill-opacity:0.554415;stroke:#9e9e9e;stroke-width:10.961;stroke-linecap:round;stroke-linejoin:round;stroke-dasharray:none;stroke-opacity:1;paint-order:stroke fill markers"
         d="m 1223.3611,329.24857 h 88.4467"
         id="path11109" />
    </g>
    <g
       id="g11125"
       transform="translate(0,2.0961733)">
      <path
         style="display:inline;fill:#ffffff;fill-opacity:0.554415;stroke:#9e9e9e;stroke-width:10.961;stroke-linecap:round;stroke-linejoin:round;stroke-dasharray:none;stroke-opacity:1;paint-order:stroke fill markers"
         d="m 1127.4405,372.3698 h 71.3904"
         id="path11111" />
      <path
         style="display:inline;fill:#ffffff;fill-opacity:0.554415;stroke:#9e9e9e;stroke-width:10.961;stroke-linecap:round;stroke-linejoin:round;stroke-dasharray:none;stroke-opacity:1;paint-order:stroke fill markers"
         d="m 1225.3741,372.3698 h 35.9094"
         id="path11115" />
    </g>
    <g
       id="g11121">
      <path
         style="display:inline;fill:#ffffff;fill-opacity:0.554415;stroke:#9e9e9e;stroke-width:10.961;stroke-linecap:round;stroke-linejoin:round;stroke-dasharray:none;stroke-opacity:1;paint-order:stroke fill markers"
         d="m 1127.4405,419.08447 h 101.2053"
         id="path11113" />
      <path
         style="display:inline;fill:#ffffff;fill-opacity:0.554415;stroke:#9e9e9e;stroke-width:10.961;stroke-linecap:round;stroke-linejoin:round;stroke-dasharray:none;stroke-opacity:1;paint-order:stroke fill markers"
         d="m 1251.6942,419.08447 h 56.9347"
         id="path11117" />
    </g>
  </g>
  <g
     id="layer5"
     style="display:inline">
    <text
       xml:space="preserve"
       style="font-style:normal;font-variant:normal;font-weight:bold;font-stretch:normal;font-size:60px;font-family:Arial;-inkscape-font-specification:'Arial Bold';fill:#000000;fill-opacity:1;stroke:none;stroke-width:10;stroke-linecap:round;stroke-linejoin:round;stroke-dasharray:none;stroke-opacity:1;paint-order:stroke fill markers"
       x="271.30441"
       y="537.21869"
       id="text12565"><tspan
         id="tspan12563"
         x="271.30441"
         y="537.21869"
         style="font-style:normal;font-variant:normal;font-weight:bold;font-stretch:normal;font-size:60px;font-family:Arial;-inkscape-font-specification:'Arial Bold'">Code</tspan></text>
    <text
       xml:space="preserve"
       style="font-style:normal;font-variant:normal;font-weight:bold;font-stretch:normal;font-size:60px;font-family:Arial;-inkscape-font-specification:'Arial Bold';fill:#000000;fill-opacity:1;stroke:none;stroke-width:10;stroke-linecap:round;stroke-linejoin:round;stroke-dasharray:none;stroke-opacity:1;paint-order:stroke fill markers"
       x="1140.9159"
       y="576.74652"
       id="text12723"><tspan
         id="tspan12721"
         x="1140.9159"
         y="576.74652"
         style="font-style:normal;font-variant:normal;font-weight:bold;font-stretch:normal;font-size:60px;font-family:Arial;-inkscape-font-specification:'Arial Bold'">Docs</tspan></text>
    <text
       xml:space="preserve"
       style="font-style:normal;font-variant:normal;font-weight:bold;font-stretch:normal;font-size:60px;font-family:Arial;-inkscape-font-specification:'Arial Bold';fill:#000000;fill-opacity:1;stroke:none;stroke-width:10;stroke-linecap:round;stroke-linejoin:round;stroke-dasharray:none;stroke-opacity:1;paint-order:stroke fill markers"
       x="645.02167"
       y="988.19495"
       id="text12727"><tspan
         x="645.02167"
         y="988.19495"
         style="font-style:normal;font-variant:normal;font-weight:bold;font-stretch:normal;font-size:60px;font-family:Arial;-inkscape-font-specification:'Arial Bold'"
         id="tspan12729">Services</tspan></text>
  </g>
</svg>
