<?xml version="1.0" encoding="UTF-8"?>
<svg id="Layer_1" data-name="Layer 1" xmlns="http://www.w3.org/2000/svg" viewBox="0 0 1080 1080">
  <defs>
    <style>
      .cls-1, .cls-2 {
        fill: #898989;
      }

      .cls-3, .cls-4 {
        fill: #f5821f;
      }

      .cls-4 {
        font-family: DMSans-Light, 'DM Sans';
        font-size: 54.51px;
        font-weight: 300;
        letter-spacing: .5em;
      }

      .cls-2 {
        fill-rule: evenodd;
      }

      .cls-5 {
        fill: #110f0f;
      }
    </style>
  </defs>
  <g id="Layer_2" data-name="Layer 2">
    <g>
      <g id="logo">
        <path class="cls-5" d="M398.58,643.53c151.03,0,273.93-104.56,273.93-233.09v-51.83h-239.46l-54.28,103.65h241.22c-23.56,45.61-87.28,85.68-214.42,82.62-83.84,0-159.1-63.11-159.1-134.44h-69.07c5.91-109.75,181.63-197.55,311.99-197.55,62.69,0,235-4.94,277.02,19.81-96.71-96.71-137.59-118.47-137.59-118.47-22.29-2.8-113-1-139.43-1-207.92,0-365.02,135.32-365.02,306.59h.6c5.84,124.2,126.26,223.7,273.6,223.7Z"/>
        <path class="cls-5" d="M771.86,715.04c18.87,0,34.19,2.18,52.19-4.96,27.35-10.84,89.46-65.61,89.46-65.61,0,0-42.14,87.07-46.36,95.65-4.58,9.31-9.16,18.62-13.74,27.93-1.48,3.01-14.02,34.42-16.94,34.42H246.24s284.99-150.99,284.99-150.99c93.01-49.02,326.67-186.68,295.7-349.7-19.39-72.04-80.13-122.91-136.2-169.18-6.18-4.13-21.82-13.17-32.08-19.57,278.73,0,474.44,315.2-147.73,600.94,66.91.71,207.02,1.07,260.95,1.07Z"/>
      </g>
      <path class="cls-2" d="M961.68,291.52c-2.25,8.23-5.47,16.13-9.58,23.53-4.12,7.4-9.12,14.31-14.92,20.56,11.3-23.38,13.37-43.23,3.66-55.19-9.01-11.11-26.79-13.69-49.48-8.99-33.38,6.91-77.39,29.55-119.79,63.94-5.02,4.08-9.89,8.21-14.59,12.38-34.65,30.75-60.19,63.54-72.35,90.92,9.46-33.05,40.83-76.86,86.18-116.99,2.77-2.46,5.6-4.9,8.48-7.33,24.51-20.67,49.63-37.5,73.14-49.75,47.62-24.82,88.65-30.83,104.78-11.71,7.56,8.99,8.75,22.45,4.49,38.63Z"/>
      <path class="cls-3" d="M768.72,303.64c-2.73,2.3-5.38,4.59-7.87,6.81-26.6,23.54-49.11,48.88-65.44,73.17l6.92-21.42-68.99-50.17h85.4l10.95-33.82,15.34-47.37,18.15,55.78,5.54,17.02Z"/>
      <path class="cls-1" d="M794.87,384.09l19.21,59.18-69.05-50.1-28.53,20.72c12.99-18.12,30.33-37.09,50.42-54.92,3.65-3.24,7.41-6.46,11.22-9.61.01-.02.02-.02.03-.03,21.78-14.55,43.28-24.97,61.33-29.42,3.09-.76,6.03-1.33,8.83-1.72l-60.6,44.01,7.14,21.89Z"/>
    </g>
    <g>
      <path d="M228.97,863.41l.87,12c.32,3.63.47,6.11.47,7.42l-2.21.39c-3.53-8-7.91-14-13.15-18-5.24-4-11.65-6-19.23-6-9.27,0-16.48,1.13-21.63,3.4-7.48,3.21-13.87,8.79-19.19,16.74-5.32,7.95-7.98,17.53-7.98,28.74,0,6.47.97,12.29,2.92,17.45,1.95,5.16,4.7,9.96,8.25,14.41,3.55,4.45,7.75,8.3,12.59,11.57,3.16,2.16,6.92,3.79,11.29,4.9,2.47.58,6.16.87,11.05.87,3.16,0,6.66-.45,10.5-1.34,3.84-.89,6.74-2.09,8.69-3.59,1.95-1.5,3.28-3.2,3.99-5.09.71-1.89,1.07-5.58,1.07-11.05,0-9.11-.61-14.41-1.82-15.91-1.21-1.5-5.03-2.49-11.45-2.96l-3.16-.24-2.13.08c-.32-.05-.74-.13-1.26-.24l-1.18-1.97c0-.26.18-.6.55-1.03,2.74-.42,8.69-.63,17.84-.63,2.05,0,5.4.05,10.03.16l8.13.32,7.34-.08c1.42,0,3.13.05,5.13.16.37.05.6.15.71.28.1.13.16.36.16.67,0,.58-.13,1.32-.39,2.21-2.21.47-3.92.71-5.13.71l-5.13-.08c-1.74,0-3.13.61-4.19,1.82-.53.58-.79,2.55-.79,5.92l.08,10.34c0,7.11-.29,11.63-.87,13.58-.32,1.16-.97,2.2-1.97,3.12-1,.92-3.11,2.01-6.32,3.28-4.58,1.84-8.74,3.08-12.48,3.71-6.95,1.21-13.66,1.82-20.13,1.82-10.42,0-18.96-1.33-25.62-3.99-6.66-2.66-12.4-6.36-17.21-11.09-4.82-4.74-8.25-9.53-10.3-14.37-3.11-7.11-4.66-14.34-4.66-21.71,0-9.21,2.43-18.23,7.3-27.04,4.87-8.82,12.72-15.99,23.57-21.52,7.63-3.89,18-5.84,31.11-5.84,9.05,0,16.46.79,22.23,2.37,5.76,1.58,10.33,3.37,13.7,5.37Z"/>
      <path d="M310.25,959.11c-7.9-.32-18.48-.47-31.74-.47l-17.13.47-7.66-.24-6.08.24c-.63-.05-1.55-.18-2.76-.39.95-2.21,2.16-4.24,3.63-6.08,4.37-5.37,10.77-12.29,19.19-20.77,11.79-11.84,19.55-21.15,23.29-27.91,3.74-6.76,5.61-13.12,5.61-19.07,0-5.58-1.9-10.26-5.69-14.05s-8.45-5.69-13.98-5.69c-3.32,0-6.53.78-9.63,2.33-3.11,1.55-5.61,3.51-7.5,5.88-1.21,1.53-2.82,4.58-4.82,9.16-1.11,2.53-1.76,3.9-1.97,4.11-.32.37-.68.55-1.11.55s-.83-.22-1.22-.67c-.4-.45-.59-1.01-.59-1.7,0-2.37,1.2-6.16,3.59-11.37,2.4-5.21,5.92-9.29,10.58-12.24,4.66-2.95,10.07-4.42,16.23-4.42,8.05,0,14.78,2.62,20.17,7.86,5.4,5.24,8.09,11.49,8.09,18.75,0,5.74-1.84,11.57-5.53,17.49-3.69,5.92-12.16,14.99-25.42,27.2-4.37,4-7.48,6.95-9.32,8.84-1.84,1.9-5.55,6-11.13,12.32,8.05.32,15.37.47,21.95.47,1.42,0,2.97-.05,4.66-.16,3.11-.1,4.92-.16,5.45-.16l10.98.24c1.21,0,2.45-.58,3.71-1.74,1.26-1.16,2.97-4.42,5.13-9.79l1.9-.08c.26,0,.66.03,1.18.08.26.53.4.92.4,1.18l-.16.63c-.42,1.53-.79,4.32-1.11,8.37-.21,2.37-.61,5.98-1.18,10.82Z"/>
      <path class="cls-1" d="M386.89,861.84c.42,3.47.63,5.47.63,6l-.32,7.03c-.11,3-.24,4.92-.39,5.76-.47.21-.87.32-1.18.32l-.71-.16c-1.69-7.37-4.54-12.74-8.57-16.11-4.03-3.37-8.94-5.05-14.73-5.05s-10.92,1.68-14.77,5.05c-3.84,3.37-5.76,7.29-5.76,11.77,0,3.42,1.34,6.55,4.03,9.4,2.68,2.84,9.55,7.1,20.61,12.76,8.42,4.35,14.45,7.91,18.08,10.68,3.63,2.77,6.37,5.97,8.21,9.6,1.84,3.64,2.76,7.69,2.76,12.17,0,5.64-1.46,10.93-4.38,15.89-2.92,4.95-6.86,8.68-11.8,11.18-4.95,2.5-11.5,3.75-19.66,3.75-7.11,0-13.92-1.13-20.45-3.4-3.84-1.37-6.19-2.47-7.03-3.32-.84-.84-1.26-1.74-1.26-2.68,0-.58.05-1.32.16-2.21.74-6.21,1.13-11.32,1.18-15.32.1-2.47.29-3.92.55-4.34.21-.37.6-.55,1.18-.55.47,0,.85.17,1.15.51.29.34.49.99.59,1.93.58,6.47,3.58,12.27,9,17.37,5.37,5.11,11.45,7.66,18.24,7.66,4.16,0,7.99-.87,11.49-2.61,3.5-1.74,6.24-4.25,8.21-7.54,1.97-3.29,2.96-6.49,2.96-9.59,0-4.26-1.5-8.16-4.5-11.69-3-3.53-9.03-7.65-18.08-12.36-9.05-4.71-14.95-8.14-17.69-10.3-4.42-3.53-7.74-7.26-9.95-11.21-1.63-3.05-2.45-6.61-2.45-10.66,0-7.32,2.89-13.51,8.69-18.59,5.79-5.08,13.55-7.62,23.29-7.62,5.37,0,10,.61,13.9,1.82,2.84.95,5.76,2.5,8.76,4.66Z"/>
      <path class="cls-1" d="M396.52,958.07c.53-.46.97-.74,1.34-.85.89-.26,2.42-.48,4.58-.63,5.11-.32,8.26-.79,9.47-1.42.74-1.05,1.11-2.53,1.11-4.43l-.08-5.54.08-20.09-.16-9.49.08-19.85-.39-22.54c-.05-5.38-.39-8.41-1.03-9.1-.95-1-3.76-1.58-8.45-1.74-2-.05-3.76-.21-5.29-.47-.68-.37-1.03-.84-1.03-1.42,0-.42.13-.92.4-1.5.47-.26.89-.39,1.26-.39.74,0,1.63.03,2.68.08,3.11.32,6.32.47,9.63.47l5.84-.16,13.9.32c6.95,0,12.37-.08,16.27-.24,3.9-.16,6.53-.24,7.9-.24,1.21,0,4.21.11,9,.32l11.21-.08,1.34.24,6.55-.24.79.39c.26.42.45.87.55,1.34,0,.74-.12,1.87-.35,3.4-.24,1.53-.36,2.47-.36,2.84,0,5.48.18,10.11.55,13.9-.05.32-.21.53-.47.63-.57,0-1.08-.08-1.55-.24-.58-1-1.36-2.76-2.33-5.29-.97-2.53-2.44-5.45-4.39-8.76-1.32-2.21-2.34-3.53-3.08-3.95-.74-.42-2.26-.63-4.58-.63-.47,0-2.87-.05-7.19-.16-1.16-.05-2.29-.08-3.4-.08l-22.52.47h-1.97c-2.9,0-4.64.37-5.22,1.1-.9,1.26-1.34,4.97-1.34,11.13,0,.63.13,6.95.39,18.95v10.98c.58.16,1.21.24,1.89.24h1.34c.89,0,2.21.03,3.95.08,2.74.11,4.58.16,5.53.16.63,0,1.18-.03,1.66-.08,5.69-.21,13-.32,21.95-.32,2.79-.47,4.42-1.03,4.9-1.66.79-.95,1.38-3.42,1.78-7.42.39-4,1.28-6.26,2.65-6.79.68,0,1.32.13,1.89.39.11.42.16.82.16,1.18s-.05.97-.16,1.82c-.26,1.95-.39,8.05-.39,18.32,0,2.74.14,5.79.43,9.16.29,3.37.43,5.19.43,5.45,0,.47-.08,1.11-.24,1.89-.42.21-.76.32-1.03.32h-.55c-.84-1.47-1.66-3.76-2.45-6.87-1.37-5.32-2.8-8.65-4.3-9.99-1.5-1.34-3.94-2.01-7.3-2.01-.74,0-2.08.04-4.03.12-1.95.08-4.84.12-8.69.12h-5.13c-7.32,0-12.11.16-14.37.48l-.08,2.61.08,14.55-.08,9.18.08,8.94c.05,5.38.39,8.49,1.03,9.33.89,1.16,2.84,1.74,5.84,1.74l4.82-.08c.42,0,2.07.04,4.94.12,2.87.08,6.41.12,10.62.12,10.16,0,16.92-.44,20.29-1.31,3.37-.87,6.15-2.42,8.33-4.64,2.18-2.22,4.93-7,8.25-14.34,1-2.17,2-3.25,3-3.25.47,0,1,.21,1.58.63-1.53,5.21-2.4,8.63-2.61,10.26-.58,3.69-.92,7.45-1.03,11.29,0,1.74-.42,3.19-1.26,4.34h-1.74l-22.19.24-9.95-.08-23.69.32h-9.63c-1.21,0-2.34.03-3.39.08-9.48.42-16.45.63-20.92.63-.79,0-1.33-.13-1.62-.38-.29-.26-.43-.64-.43-1.16l.08-.77Z"/>
      <path class="cls-1" d="M499.83,862.7l-.08-3.79c8.16,0,14.13-.21,17.92-.63,1.47-.16,2.5-.24,3.08-.24.47,0,1.18.03,2.13.08,2.21,1.84,4.26,3.95,6.16,6.32.42.47.89,1,1.42,1.58l16.66,18.4,2.37,2.84c3.37,3.95,6.43,7.32,9.2,10.11,2.76,2.79,8.15,8.61,16.15,17.45l18.87,20.92c1.84,2.05,4.21,4.61,7.11,7.66l.08-1.26c-.32-7.32-.47-11.19-.47-11.61l.32-4.74-.16-7.42v-3.39c0-2.16-.18-8.82-.55-19.98-.05-1.53-.26-4.41-.63-8.65-.37-4.24-.55-7.96-.55-11.17,0-5.79-.34-9.16-1.03-10.11-.47-.68-2.71-1.39-6.71-2.13-.95-.05-2.42-.21-4.42-.47-2.37-.1-3.76-.24-4.18-.39-.42-.16-.84-.6-1.26-1.34.1-.84.34-1.63.71-2.37,1.42-.42,2.82-.63,4.18-.63,1.47,0,3.3.19,5.49.55,2.18.37,4.15.55,5.88.55,2.42,0,6.18-.16,11.29-.47,2.89-.21,4.9-.32,6-.32h1.34l-.16,2.45c-.84.37-2,.59-3.47.67s-2.84.3-4.11.67c-1.89.58-3.03,1.08-3.4,1.5-1.26,1.37-1.89,2.76-1.89,4.18l.87,24.95.63,11.45-.08,3.32.47,15.87c.32,10.84.47,20.27.47,28.27,0,1.74-.11,5.5-.32,11.29l-3.68.32c-1.84-2.11-8.19-8.74-19.04-19.9-2.53-2.58-4.24-4.39-5.13-5.45l-6.79-7.82c-2.63-2.89-4.35-4.74-5.13-5.53-.79-.79-1.37-1.37-1.74-1.74-5.74-6.53-13.19-14.69-22.35-24.48-2.47-2.63-6.11-6.74-10.9-12.32-3-3.53-4.9-5.68-5.69-6.47-.79-.79-1.87-1.68-3.24-2.68l-.24,2.68c0,10.26.26,24.43.79,42.48l.55,26.14c.05,2.21.18,4.34.39,6.4l2.76.63c5,.47,9.92,1.18,14.77,2.13.37.32.68.55.95.71l-.08,3c-.84.26-1.53.4-2.05.4-.58,0-1.29-.05-2.13-.16-5.21-.42-11.55-.63-19.03-.63-5.26,0-9.9.13-13.9.39l-1.11.08c-.47,0-1.16-.05-2.05-.16l-.08-2.37,2.05-.95,3.71-.55c3.32-.47,5.74-1,7.26-1.58,1-.37,1.82-.92,2.45-1.66.58-3.63.87-8.95.87-15.95,0-3.26-.08-9.24-.24-17.92v-10.74l-.16-22.42c-.11-10-.45-15.9-1.03-17.69-.32-.95-.97-1.79-1.97-2.53-2-1.42-4.62-2.32-7.86-2.68-3.24-.37-5.33-.68-6.28-.95Z"/>
      <path class="cls-1" d="M621.22,870.05l3.24-11.92c.21-1.58.5-2.59.87-3.04.37-.45.79-.67,1.26-.67.95,0,2.03,1.13,3.24,3.4.89,1.63,1.63,2.67,2.21,3.12.58.45,1.42.75,2.53.91l.79-.08,3.39.32,18.63.24,22.03-.08h6.47l12.24-.23c.53,0,1.18.05,1.97.15,3.58.31,5.79.47,6.63.47.79,0,1.42-.26,1.9-.78.16-.2,1.03-1.94,2.61-5.21.68-1.48,1.53-2.22,2.53-2.22.42,0,.95.11,1.58.31.26,1.04.4,1.99.4,2.82l-.08,3.13.08,6.66c0,1.62-.13,6.84-.4,15.67,0,.58-.11,1.1-.32,1.57-.58.37-1.08.55-1.5.55s-.79-.2-1.11-.59c-.32-.39-.71-1.6-1.18-3.64-1.05-4.7-2.37-8.06-3.95-10.1-1.05-1.3-2.57-2.24-4.54-2.82s-6.7-.86-14.17-.86h-13.34c-.11,2.11-.16,4.03-.16,5.77l.63,49.08c0,1.95-.11,5.64-.32,11.06l.08,10.51-.08,5.85c0,1.84.32,3.16.95,3.95.63.79,2.34,1.55,5.13,2.29,4.84,1.21,8.08,1.95,9.71,2.21,1,.11,1.82.32,2.45.63v2.37l-11.21-.28c-6.16-.05-10.79-.16-13.9-.35l-11.53.55-8.45.47c-2.37,0-3.82-.05-4.34-.16l-1.11-.47c.11-1.21.34-1.99.71-2.33.37-.34,1.34-.62,2.92-.83,2.21-.32,4.82-.88,7.82-1.7,3-.82,4.97-1.64,5.92-2.49.53-.47.89-1.26,1.11-2.37.47-2.32.71-6.87.71-13.66v-13.42l-.32-29.29-.32-6.32-.08-21.08h-12.71c-7.58,0-12.19.46-13.82,1.38-2.58,1.43-6.42,5.62-11.53,12.56-1.69,2.6-3.16,3.91-4.42,3.91l-.71-.16c-.21-.32-.32-.6-.32-.87,0-.63.42-2.53,1.26-5.69,1.05-4.05,1.68-6.79,1.9-8.21Z"/>
      <path class="cls-1" d="M767.84,903.92c3.47-.68,6.29-1.8,8.45-3.35,2.16-1.55,3.96-3.85,5.41-6.9,1.45-3.05,2.17-6.2,2.17-9.46,0-3.57-1.13-7.36-3.4-11.35-1.74-3.05-4.67-5.59-8.8-7.64-4.13-2.05-9.09-3.07-14.88-3.07-1.42,0-3.26.08-5.53.24-.21,2.73-.32,4.83-.32,6.3l.39,14.74-.08,6.07c0,4.1.06,21.2.06,21.2-.16,1.69-.14,3.97-.14,9.18v27c-.05,1,.16,2.4.63,4.18.42,1,1.15,1.8,2.17,2.41,1.03.61,3.99,1.51,8.88,2.72l3.24.79c.42.53.63,1.24.63,2.13-1.42.26-2.42.4-3,.4-4.73,0-8.07-.05-10.01-.16-1-.05-1.81-.08-2.44-.08l-10.72.16-10.48-.08c-.47,0-2.86.08-7.17.24l-1.58-.32-.16-.79c0-.47.37-1.03,1.1-1.66,7.65-.89,11.97-1.53,12.97-1.89.68-.26,1.31-1.05,1.89-2.37v-.87c0-1.31.21-6.07.63-14.28.1-2.31.16-4.58.16-6.78l-.24-9.39.16-10.65-.08-19.8.08-14.2c.05-6-.41-9.65-1.38-10.97-.97-1.32-3.49-2.25-7.54-2.8s-6.29-.96-6.71-1.22c-.42-.26-.63-.68-.63-1.26,0-.37.08-.84.24-1.42.53-.47,1.74-.74,3.63-.79.26,0,.99-.07,2.17-.2,1.18-.13,2.3-.2,3.36-.2h6.47l20.77-.24c11.74,0,19.96.87,24.67,2.61,4.71,1.74,8.46,4.67,11.25,8.8,2.79,4.13,4.19,8.75,4.19,13.86,0,9.69-5.08,17.08-15.22,22.19-1.74.9-3.1,1.69-4.1,2.37,1.79,3.79,4.28,8.33,7.49,13.64l10.01,17.2c4,6.33,6.76,10.3,8.29,11.9,1.53,1.61,3.38,2.94,5.57,4,2.19,1.05,5.86,2.06,11.02,3,.05.53.08.95.08,1.26s-.03.71-.08,1.18c-7.21.1-15.66.16-25.35.16-.68,0-1.63-.05-2.84-.16-3.74-7.17-8.13-15.05-13.19-23.65l-11.69-21.35c-1.58-2.21-2.88-3.6-3.91-4.15-1.03-.55-2.38-.83-4.07-.83,0,0,2.55-4.71,7.5-5.61Z"/>
      <path class="cls-1" d="M805.22,857.57h3.79c1.37,0,4.37.07,9,.21,7.16.28,13.11.42,17.84.42l9.24-.16c1.32,0,2.58.11,3.79.32.37.42.55.87.55,1.34v.87l-1.98.95h-.87l-4.45.08-2.3-.08c-1.8,0-3.26.39-4.37,1.18-.84.58-1.26,1.18-1.26,1.82,0,.68.37,1.55,1.1,2.61.26.42.69,1.05,1.26,1.9,1.05,1.79,2.45,3.87,4.19,6.24,2.48,3.48,5.11,7.59,7.9,12.33,1.11,1.9,2.26,3.71,3.48,5.45l12.01,18.17c.79-1,1.87-2.48,3.25-4.42l11.39-16.36,13.14-19.68c1.16-1.79,1.84-3.11,2.05-3.95.11-.42.16-.87.16-1.34,0-1.11-.5-2-1.5-2.68-1.63-1.11-5.16-1.92-10.58-2.45-.37-.05-.87-.13-1.5-.24-.37-.63-.55-1.16-.55-1.58,0-.32.03-.66.08-1.03l4.11-.08,14.84.39,11.92-.24c.32,0,1.42.03,3.32.08l-.24,2.76c-.37.11-.95.19-1.74.24l-1.9.24c-.32.05-.82.11-1.5.16-1.11.42-1.97.87-2.61,1.34-7.74,8.16-14.32,15.87-19.74,23.13-5.42,7.26-10,13.87-13.74,19.82-1.21,1.95-2.18,3.4-2.92,4.34-1.37,1.79-2.19,3.11-2.45,3.95-.58,2.06-.87,5.17-.87,9.33,0,16.4.29,26.08.87,29.03.32,1.48.74,2.37,1.26,2.69,1.37.69,6.82,1.5,16.34,2.45v.92c0,.62-.19,1.36-.55,2.23l-20.25-.87-13.52.71h-11.07c-1.05,0-2.21-.03-3.48-.08-.21-.58-.32-1-.32-1.26s.08-.63.24-1.11c.37-.32.74-.5,1.11-.55l10.23-1.58c3.54-1.16,5.52-1.95,5.95-2.37.63-.63,1.03-1.6,1.19-2.92.05-.95.08-8.26.08-21.95,0-5.11-.17-8.22-.51-9.36-.34-1.13-1.46-3.12-3.36-5.96l-10.34-15.71-17.61-25.66c-3.05-4.44-5.71-7.42-7.97-8.94-1-.68-3.5-1.2-7.5-1.57-.42,0-1.05-.05-1.9-.16l-.24-3.4Z"/>
    </g>
    <text class="cls-4" transform="translate(314.25 1031.18)"><tspan x="0" y="0">SECURITY</tspan></text>
  </g>
</svg>